<?xml version="1.0" standalone="no"?>
<!DOCTYPE svg PUBLIC "-//W3C//DTD SVG 20010904//EN"
 "http://www.w3.org/TR/2001/REC-SVG-20010904/DTD/svg10.dtd">
<svg version="1.0" xmlns="http://www.w3.org/2000/svg"
 width="2100.000000pt" height="585.000000pt" viewBox="0 0 2100.000000 585.000000"
 preserveAspectRatio="xMidYMid meet">

<g transform="translate(0.000000,585.000000) scale(0.100000,-0.100000)"
fill="#000000" stroke="none">
<path d="M15633 5638 l-523 -211 0 -858 0 -859 -57 47 c-208 169 -512 307
-798 363 -658 127 -1285 -67 -1736 -537 -292 -305 -478 -684 -554 -1133 -36
-206 -30 -571 11 -788 196 -1032 1050 -1723 2031 -1644 403 32 772 172 1046
395 l57 47 0 -185 0 -185 535 0 535 0 0 2880 c0 2298 -3 2880 -12 2880 -7 -1
-248 -96 -535 -212z m-1295 -2532 c398 -111 681 -417 757 -819 19 -102 19
-302 0 -404 -82 -433 -406 -755 -843 -839 -97 -18 -309 -18 -409 1 -406 77
-723 372 -831 774 -23 85 -25 115 -26 266 0 153 3 180 26 267 107 394 408 681
808 769 129 29 389 21 518 -15z"/>
<path d="M1990 4153 c-501 -38 -958 -242 -1301 -583 -300 -298 -494 -680 -574
-1130 -23 -128 -31 -445 -16 -591 83 -794 578 -1439 1311 -1709 233 -86 459
-124 740 -124 357 0 640 64 945 213 448 220 773 585 919 1034 30 91 49 173 72
315 l5 32 -540 0 -539 0 -13 -37 c-92 -284 -383 -495 -739 -535 -438 -48 -845
179 -1031 578 -62 131 -90 253 -96 419 -16 427 177 788 527 983 30 17 102 47
160 66 470 157 1000 -43 1160 -436 l24 -58 538 0 538 0 0 23 c0 12 -9 64 -20
115 -110 520 -471 967 -985 1217 -331 162 -718 236 -1085 208z"/>
<path d="M9340 4153 c-1301 -98 -2156 -1296 -1843 -2583 124 -509 454 -968
893 -1241 497 -308 1117 -396 1721 -243 317 79 595 228 809 431 233 222 376
468 450 774 11 46 20 94 20 107 l0 22 -516 -2 -516 -3 -24 -63 c-54 -143 -176
-273 -328 -347 -357 -175 -825 -147 -1149 68 -91 61 -222 191 -280 279 -79
120 -152 307 -171 441 l-7 47 1510 0 c830 0 1512 4 1515 8 3 5 10 97 17 204
10 154 10 225 0 329 -64 699 -454 1271 -1076 1576 -311 152 -677 222 -1025
196z m310 -880 c182 -36 316 -109 455 -248 87 -86 108 -113 148 -195 45 -89
87 -224 87 -277 l0 -23 -940 0 c-822 0 -940 2 -940 15 0 25 47 141 94 233 95
183 229 316 411 407 210 106 447 136 685 88z"/>
<path d="M18690 4153 c-634 -45 -1208 -371 -1545 -878 -173 -261 -271 -507
-331 -840 -28 -155 -27 -566 3 -730 172 -948 897 -1606 1858 -1686 286 -24
606 16 874 108 435 149 813 449 1053 836 71 114 159 301 202 431 119 361 140
783 56 1171 -63 291 -223 621 -410 850 -418 510 -1078 787 -1760 738z m375
-1037 c385 -84 671 -363 771 -754 35 -133 43 -338 20 -471 -76 -436 -377 -749
-811 -843 -36 -7 -121 -12 -210 -12 -127 1 -165 5 -245 26 -361 96 -628 365
-728 736 -23 88 -26 114 -26 282 0 168 3 194 26 281 55 204 136 348 272 485
153 154 341 249 562 284 80 12 284 5 369 -14z"/>
<path d="M4740 2085 l0 -1995 535 0 534 0 4 1062 c3 1034 4 1066 24 1158 79
362 238 586 508 716 166 80 206 87 568 92 l317 4 0 479 0 479 -240 0 c-380 0
-536 -26 -735 -124 -162 -80 -315 -205 -407 -332 l-33 -46 -3 251 -2 251 -535
0 -535 0 0 -1995z"/>
</g>
</svg>
